<svg xmlns="http://www.w3.org/2000/svg" xmlns:xlink="http://www.w3.org/1999/xlink" width="160" zoomAndPan="magnify" viewBox="0 0 120 30.000001" height="40" preserveAspectRatio="xMidYMid meet" version="1.0"><defs><clipPath id="7883545918"><path d="M 2.503906 6 L 10 6 L 10 24 L 2.503906 24 Z M 2.503906 6 " clip-rule="nonzero"/></clipPath><clipPath id="e8818f43d6"><path d="M 4 4.738281 L 22 4.738281 L 22 24 L 4 24 Z M 4 4.738281 " clip-rule="nonzero"/></clipPath><clipPath id="54c9d12902"><path d="M 76 10 L 88 10 L 88 25.0625 L 76 25.0625 Z M 76 10 " clip-rule="nonzero"/></clipPath></defs><g clip-path="url(#7883545918)"><path fill="#030333" d="M 2.789062 7.664062 L 2.789062 20.699219 C 2.789062 22.308594 4.082031 23.625 5.660156 23.625 L 9.160156 23.625 L 2.878906 6.933594 C 2.820312 7.167969 2.789062 7.414062 2.789062 7.664062 Z M 2.789062 7.664062 " fill-opacity="1" fill-rule="nonzero"/></g><g clip-path="url(#e8818f43d6)"><path fill="#030333" d="M 18.445312 4.738281 L 5.660156 4.738281 C 5.375 4.738281 5.09375 4.78125 4.832031 4.863281 L 14.453125 7.195312 C 15.824219 7.527344 15.550781 10.105469 14.171875 10.417969 L 8.519531 11.558594 L 8.515625 11.558594 C 8.273438 11.617188 8.097656 11.808594 8.03125 12.039062 C 7.988281 12.191406 9.101562 19.707031 9.6875 23.625 L 18.445312 23.625 C 20.027344 23.625 21.316406 22.308594 21.316406 20.695312 L 21.316406 7.664062 C 21.316406 6.054688 20.027344 4.738281 18.445312 4.738281 Z M 17.589844 16.273438 L 13.96875 17.164062 C 13.96875 17.164062 13.964844 17.164062 13.960938 17.167969 C 13.808594 17.210938 13.703125 17.339844 13.664062 17.492188 C 13.605469 17.726562 13.796875 23.464844 13.796875 23.464844 L 10.171875 14.277344 C 9.945312 13.742188 10.398438 13.160156 10.960938 13.265625 L 17.535156 14.5625 C 18.429688 14.742188 18.472656 16.03125 17.589844 16.269531 Z M 17.589844 16.273438 " fill-opacity="1" fill-rule="nonzero"/></g><path fill="#030333" d="M 39.839844 7.554688 C 40.597656 7.941406 41.179688 8.484375 41.59375 9.191406 C 42.003906 9.902344 42.210938 10.722656 42.210938 11.660156 C 42.210938 12.601562 42.003906 13.421875 41.59375 14.128906 C 41.179688 14.839844 40.597656 15.382812 39.839844 15.769531 C 39.082031 16.15625 38.210938 16.347656 37.222656 16.347656 L 33.902344 16.347656 L 33.902344 21.683594 L 31.53125 21.683594 L 31.53125 6.976562 L 37.222656 6.976562 C 38.210938 6.976562 39.082031 7.167969 39.839844 7.550781 Z M 37.015625 14.246094 C 37.867188 14.246094 38.542969 14.011719 39.042969 13.539062 C 39.542969 13.070312 39.796875 12.445312 39.796875 11.660156 C 39.796875 10.875 39.546875 10.230469 39.054688 9.769531 C 38.5625 9.308594 37.886719 9.074219 37.035156 9.074219 L 33.902344 9.074219 L 33.902344 14.246094 Z M 37.015625 14.246094 " fill-opacity="1" fill-rule="nonzero"/><path fill="#030333" d="M 53.074219 21.683594 L 51.898438 21.683594 C 51.210938 21.683594 50.714844 21.535156 50.414062 21.238281 C 50.113281 20.945312 49.960938 20.519531 49.960938 19.957031 C 49.160156 21.191406 48 21.808594 46.472656 21.808594 C 45.292969 21.808594 44.34375 21.527344 43.628906 20.96875 C 42.914062 20.40625 42.558594 19.636719 42.558594 18.65625 C 42.558594 17.550781 42.941406 16.699219 43.714844 16.105469 C 44.480469 15.507812 45.601562 15.210938 47.074219 15.210938 L 49.734375 15.210938 L 49.734375 14.558594 C 49.734375 13.957031 49.527344 13.484375 49.117188 13.144531 C 48.703125 12.800781 48.132812 12.628906 47.40625 12.628906 C 46.761719 12.628906 46.226562 12.773438 45.808594 13.058594 C 45.386719 13.347656 45.136719 13.726562 45.054688 14.207031 L 42.871094 14.207031 C 42.980469 13.128906 43.445312 12.292969 44.269531 11.695312 C 45.097656 11.097656 46.175781 10.800781 47.507812 10.800781 C 48.921875 10.800781 50.015625 11.140625 50.785156 11.8125 C 51.554688 12.484375 51.941406 13.449219 51.941406 14.710938 L 51.941406 18.953125 C 51.941406 19.457031 52.175781 19.710938 52.640625 19.710938 L 53.074219 19.710938 L 53.074219 21.6875 Z M 46.972656 16.890625 C 46.285156 16.890625 45.753906 17.027344 45.386719 17.300781 C 45.015625 17.574219 44.828125 17.976562 44.828125 18.507812 C 44.828125 18.972656 45.003906 19.34375 45.355469 19.621094 C 45.707031 19.902344 46.183594 20.042969 46.785156 20.042969 C 47.707031 20.042969 48.425781 19.789062 48.941406 19.285156 C 49.453125 18.78125 49.71875 18.109375 49.734375 17.265625 L 49.734375 16.890625 L 46.96875 16.890625 Z M 46.972656 16.890625 " fill-opacity="1" fill-rule="nonzero"/><path fill="#030333" d="M 58.949219 21.808594 C 57.90625 21.808594 56.984375 21.582031 56.1875 21.125 C 55.390625 20.671875 54.773438 20.023438 54.339844 19.183594 C 53.910156 18.339844 53.691406 17.375 53.691406 16.285156 C 53.691406 15.191406 53.910156 14.230469 54.351562 13.402344 C 54.792969 12.578125 55.414062 11.9375 56.21875 11.480469 C 57.019531 11.027344 57.953125 10.796875 59.011719 10.796875 C 60.332031 10.796875 61.410156 11.152344 62.25 11.859375 C 63.085938 12.566406 63.609375 13.53125 63.816406 14.746094 L 61.527344 14.746094 C 61.375 14.128906 61.074219 13.640625 60.621094 13.277344 C 60.164062 12.914062 59.609375 12.730469 58.949219 12.730469 C 58.058594 12.730469 57.335938 13.058594 56.796875 13.71875 C 56.253906 14.378906 55.980469 15.230469 55.980469 16.285156 C 55.980469 17.335938 56.253906 18.210938 56.796875 18.878906 C 57.339844 19.542969 58.058594 19.875 58.949219 19.875 C 59.636719 19.875 60.207031 19.691406 60.660156 19.320312 C 61.113281 18.949219 61.410156 18.449219 61.546875 17.820312 L 63.816406 17.820312 C 63.609375 19.066406 63.078125 20.042969 62.226562 20.75 C 61.375 21.457031 60.28125 21.808594 58.949219 21.808594 Z M 58.949219 21.808594 " fill-opacity="1" fill-rule="nonzero"/><path fill="#030333" d="M 67.289062 11.484375 C 68.066406 11.027344 68.957031 10.800781 69.960938 10.800781 C 70.964844 10.800781 71.875 11.011719 72.652344 11.429688 C 73.425781 11.847656 74.039062 12.445312 74.484375 13.214844 C 74.933594 13.988281 75.160156 14.890625 75.175781 15.925781 C 75.175781 16.207031 75.15625 16.492188 75.113281 16.789062 L 67.15625 16.789062 L 67.15625 16.914062 C 67.210938 17.851562 67.5 18.597656 68.023438 19.140625 C 68.546875 19.6875 69.238281 19.960938 70.105469 19.960938 C 70.789062 19.960938 71.371094 19.796875 71.835938 19.46875 C 72.304688 19.140625 72.613281 18.675781 72.765625 18.070312 L 74.988281 18.070312 C 74.796875 19.164062 74.277344 20.058594 73.433594 20.761719 C 72.589844 21.460938 71.535156 21.8125 70.269531 21.8125 C 69.171875 21.8125 68.210938 21.585938 67.394531 21.128906 C 66.578125 20.675781 65.945312 20.035156 65.496094 19.207031 C 65.050781 18.382812 64.828125 17.421875 64.828125 16.328125 C 64.828125 15.238281 65.042969 14.253906 65.476562 13.421875 C 65.910156 12.585938 66.515625 11.941406 67.292969 11.488281 Z M 71.988281 13.289062 C 71.472656 12.847656 70.824219 12.625 70.039062 12.625 C 69.3125 12.625 68.683594 12.855469 68.152344 13.308594 C 67.625 13.765625 67.316406 14.371094 67.234375 15.125 L 72.90625 15.125 C 72.808594 14.34375 72.503906 13.730469 71.988281 13.289062 Z M 71.988281 13.289062 " fill-opacity="1" fill-rule="nonzero"/><g clip-path="url(#54c9d12902)"><path fill="#030333" d="M 86.761719 13.371094 C 87.1875 14.207031 87.398438 15.183594 87.398438 16.300781 C 87.398438 17.421875 87.1875 18.359375 86.761719 19.191406 C 86.335938 20.023438 85.742188 20.667969 84.988281 21.125 C 84.230469 21.578125 83.375 21.804688 82.410156 21.804688 C 81.625 21.804688 80.945312 21.660156 80.371094 21.363281 C 79.792969 21.070312 79.332031 20.671875 78.988281 20.164062 L 78.988281 25.054688 L 76.761719 25.054688 L 76.761719 10.925781 L 78.703125 10.925781 L 78.972656 12.519531 C 79.824219 11.375 80.972656 10.796875 82.414062 10.796875 C 83.375 10.796875 84.234375 11.019531 84.992188 11.460938 C 85.746094 11.898438 86.339844 12.539062 86.765625 13.371094 Z M 85.132812 16.304688 C 85.132812 15.242188 84.847656 14.378906 84.277344 13.71875 C 83.707031 13.058594 82.960938 12.730469 82.039062 12.730469 C 81.121094 12.730469 80.375 13.058594 79.8125 13.710938 C 79.25 14.359375 78.96875 15.210938 78.96875 16.261719 C 78.96875 17.3125 79.25 18.21875 79.8125 18.890625 C 80.378906 19.5625 81.121094 19.898438 82.039062 19.898438 C 82.960938 19.898438 83.707031 19.5625 84.277344 18.890625 C 84.847656 18.21875 85.132812 17.355469 85.132812 16.304688 Z M 85.132812 16.304688 " fill-opacity="1" fill-rule="nonzero"/></g><path fill="#030333" d="M 99.085938 21.683594 L 97.910156 21.683594 C 97.226562 21.683594 96.730469 21.535156 96.425781 21.238281 C 96.125 20.945312 95.972656 20.519531 95.972656 19.957031 C 95.175781 21.191406 94.015625 21.808594 92.488281 21.808594 C 91.308594 21.808594 90.359375 21.527344 89.644531 20.96875 C 88.929688 20.40625 88.574219 19.636719 88.574219 18.65625 C 88.574219 17.550781 88.957031 16.699219 89.726562 16.105469 C 90.496094 15.507812 91.617188 15.210938 93.089844 15.210938 L 95.75 15.210938 L 95.75 14.558594 C 95.75 13.957031 95.542969 13.484375 95.132812 13.144531 C 94.71875 12.800781 94.148438 12.628906 93.417969 12.628906 C 92.773438 12.628906 92.242188 12.773438 91.820312 13.058594 C 91.402344 13.347656 91.152344 13.726562 91.070312 14.207031 L 88.886719 14.207031 C 88.996094 13.128906 89.460938 12.292969 90.285156 11.695312 C 91.109375 11.097656 92.191406 10.800781 93.523438 10.800781 C 94.9375 10.800781 96.03125 11.140625 96.800781 11.8125 C 97.570312 12.484375 97.957031 13.449219 97.957031 14.710938 L 97.957031 18.953125 C 97.957031 19.457031 98.191406 19.710938 98.65625 19.710938 L 99.089844 19.710938 L 99.089844 21.6875 Z M 92.984375 16.890625 C 92.296875 16.890625 91.769531 17.027344 91.398438 17.300781 C 91.027344 17.574219 90.84375 17.976562 90.84375 18.507812 C 90.84375 18.972656 91.019531 19.34375 91.367188 19.621094 C 91.71875 19.902344 92.195312 20.042969 92.800781 20.042969 C 93.71875 20.042969 94.4375 19.789062 94.953125 19.285156 C 95.46875 18.78125 95.734375 18.109375 95.746094 17.265625 L 95.746094 16.890625 Z M 92.984375 16.890625 " fill-opacity="1" fill-rule="nonzero"/><path fill="#030333" d="M 105.933594 13.046875 L 104.941406 13.046875 C 104.023438 13.046875 103.355469 13.351562 102.941406 13.960938 C 102.53125 14.570312 102.324219 15.347656 102.324219 16.285156 L 102.324219 21.683594 L 100.097656 21.683594 L 100.097656 10.925781 L 102.078125 10.925781 L 102.324219 12.542969 C 102.628906 12.039062 103.019531 11.644531 103.5 11.355469 C 103.984375 11.066406 104.628906 10.925781 105.441406 10.925781 L 105.933594 10.925781 Z M 105.933594 13.046875 " fill-opacity="1" fill-rule="nonzero"/><path fill="#030333" d="M 116.898438 21.683594 L 114.960938 21.683594 L 114.691406 20.0625 C 113.851562 21.226562 112.707031 21.808594 111.246094 21.808594 C 110.285156 21.808594 109.425781 21.585938 108.671875 21.148438 C 107.914062 20.703125 107.324219 20.070312 106.898438 19.234375 C 106.472656 18.398438 106.257812 17.425781 106.257812 16.304688 C 106.257812 15.183594 106.476562 14.25 106.90625 13.417969 C 107.339844 12.582031 107.933594 11.9375 108.691406 11.484375 C 109.449219 11.027344 110.300781 10.800781 111.246094 10.800781 C 112.015625 10.800781 112.691406 10.945312 113.265625 11.230469 C 113.84375 11.515625 114.3125 11.914062 114.667969 12.417969 L 114.667969 6.976562 L 116.894531 6.976562 L 116.894531 21.683594 Z M 114.691406 16.347656 C 114.691406 15.269531 114.414062 14.394531 113.847656 13.730469 C 113.285156 13.066406 112.542969 12.730469 111.621094 12.730469 C 110.703125 12.730469 109.957031 13.066406 109.394531 13.730469 C 108.832031 14.394531 108.550781 15.253906 108.550781 16.304688 C 108.550781 17.355469 108.832031 18.234375 109.394531 18.898438 C 109.960938 19.566406 110.703125 19.898438 111.621094 19.898438 C 112.542969 19.898438 113.285156 19.570312 113.847656 18.910156 C 114.414062 18.253906 114.691406 17.398438 114.691406 16.347656 Z M 114.691406 16.347656 " fill-opacity="1" fill-rule="nonzero"/></svg>